# xmcd
#
# Track frame offsets: 
#        150
#        11629
#        21467
#        33252
#        46878
#        57423
#        70886
#        85750
#        100162
#        112145
#        126305
#        141015
#        154658
#        168479
#        178850
#        193259
#        206561
#        219311
#
# Disc length: 3091 seconds
#
# Revision: 3
# Processed by: cddbd v1.5.1PL0 Copyright (c) Steve Scherf et al.
# Submitted via: ExactAudioCopy v0.95a5
#
DISCID=060c1112
DTITLE=周璇 - 周璇世纪珍藏版
DYEAR=1900
DGENRE=Folk
TTITLE0=天涯歌女
TTITLE1=四季歌
TTITLE2=襟上一朵花
TTITLE3=五月的风
TTITLE4=采槟榔
TTITLE5=银花飞
TTITLE6=拷红
TTITLE7='杂货
TTITLE8=龙华的桃花
TTITLE9=花样的年华
TTITLE10=想郎
TTITLE11=难民歌
TTITLE12=永远的微笑
TTITLE13=黄叶舞秋风
TTITLE14=葬花
TTITLE15=月圆花好
TTITLE16=莫负青春
TTITLE17=夜上海
EXTD=
EXTT0=
EXTT1=
EXTT2=
EXTT3=
EXTT4=
EXTT5=
EXTT6=
EXTT7=
EXTT8=
EXTT9=
EXTT10=
EXTT11=
EXTT12=
EXTT13=
EXTT14=
EXTT15=
EXTT16=
EXTT17=
PLAYORDER=
